<svg id="Layer_1" data-name="Layer 1" xmlns="http://www.w3.org/2000/svg" viewBox="0 0 283.48 35.27"><defs><style>.cls-1{fill:#f39800;}.cls-2{fill:#fabe00;}.cls-3{fill:#fff;}.cls-4{fill:#666;}</style></defs><path class="cls-1" d="M23.83,35.87c-5-5-3.89-14.14,2.43-20.48h-15V48.15H44V33.71C37.69,39.78,28.73,40.77,23.83,35.87Z" transform="translate(-11.26 -13.86)"/><rect class="cls-2" x="25.59" y="20.16" width="21.06" height="7.81" transform="translate(-17.7 18.72) rotate(-45)"/><rect class="cls-1" x="28.1" y="26.23" width="3.91" height="7.81" transform="translate(-23.77 16.21) rotate(-45)"/><polygon class="cls-3" points="26.81 29.5 4.75 29.5 4.75 6.86 6.13 6.86 6.13 28.12 26.81 28.12 26.81 29.5"/><path class="cls-4" d="M58.33,48.19c-2.73,0-4.35,0-5.85.12a35.24,35.24,0,0,0,.32-5.78V21.65a47.36,47.36,0,0,0-.32-6.36H61.1a38.64,38.64,0,0,0-.32,6.24V41.15h9.57a46.08,46.08,0,0,0,6.57-.28v7.59a53.39,53.39,0,0,0-6.57-.27Z" transform="translate(-11.26 -13.86)"/><path class="cls-4" d="M97.49,31.66c0-1.9-1.15-2.77-3.76-2.77s-3.87.83-4.47,2.77l-7.55-1.23A8.47,8.47,0,0,1,85,25.65c2.14-1.51,5.06-2.26,8.9-2.26a17.12,17.12,0,0,1,7.31,1.39c2.54,1.38,3.64,3.56,3.64,7.12V42.57a45.4,45.4,0,0,0,.28,5.62H97.49V46.37a11.5,11.5,0,0,1-7.67,2.37c-3,0-5.26-.71-6.85-2.17a7.15,7.15,0,0,1-2.17-5.38,6.66,6.66,0,0,1,2.89-5.78,16.47,16.47,0,0,1,8.22-2.57c1.54-.15,2.73-.19,5.58-.27Zm0,6a23.64,23.64,0,0,0-6.84.79A2.93,2.93,0,0,0,88.35,41c0,1.42,1.19,2.25,3.25,2.25a7.27,7.27,0,0,0,4.46-1.5,4,4,0,0,0,1.43-3Z" transform="translate(-11.26 -13.86)"/><path class="cls-4" d="M109.36,48.19a47.91,47.91,0,0,0,.31-6.21V21.5a45.59,45.59,0,0,0-.31-6.21h8a54.59,54.59,0,0,0-.27,6.21v3.32c0,.59,0,.95,0,1.5a11.49,11.49,0,0,1,8.14-3c7.2,0,11.39,4.59,11.39,12.42,0,4.23-1.22,7.63-3.52,10a11,11,0,0,1-8.22,3.08,10.56,10.56,0,0,1-7.79-2.81c0,.12,0,.63,0,.83v1.27Zm14-18.83c-3.6,0-6.17,2.77-6.17,6.61s2.61,6.88,6,6.88,5.73-2.81,5.73-7C128.93,31.82,126.84,29.36,123.36,29.36Z" transform="translate(-11.26 -13.86)"/><path class="cls-4" d="M146.81,38.34c.4,3.2,2.26,4.9,5.38,4.9a5.74,5.74,0,0,0,4-1.46,3.84,3.84,0,0,0,1.19-2l6.88,1.94a11.49,11.49,0,0,1-2.61,4.08c-2.25,2.21-5.42,3.36-9.33,3.36s-6.92-1.11-9.17-3.36a13.45,13.45,0,0,1-3.6-9.65c0-7.83,5-13,12.57-13,6.17,0,10.48,3.36,11.86,9.25a28.62,28.62,0,0,1,.6,5.18,7,7,0,0,0,0,.79Zm10.28-5.46c-.55-2.53-2.25-3.87-5-3.87s-4.51,1.26-5.18,3.87Z" transform="translate(-11.26 -13.86)"/><path class="cls-4" d="M176,15.29a41.45,41.45,0,0,0-.31,6v21a48.88,48.88,0,0,0,.31,6h-8.26a41.18,41.18,0,0,0,.31-6v-21a39,39,0,0,0-.31-6Z" transform="translate(-11.26 -13.86)"/><path class="cls-4" d="M207.37,31.46a52.57,52.57,0,0,1,2.84,4.71c-.15-1.82-.23-3.64-.23-5.86v-9a42.52,42.52,0,0,0-.32-6h8.42a44.28,44.28,0,0,0-.31,6v21a50.2,50.2,0,0,0,.31,5.89h-8.66a42.59,42.59,0,0,0-3-5l-7.32-11a47.21,47.21,0,0,1-2.85-4.86,55.91,55.91,0,0,1,.28,5.89V42a42.82,42.82,0,0,0,.32,6.17h-8.43a40.34,40.34,0,0,0,.32-6.21V21.18a43.65,43.65,0,0,0-.32-5.89H197a26.9,26.9,0,0,0,2.81,4.94Z" transform="translate(-11.26 -13.86)"/><path class="cls-4" d="M220.86,36.09c0-7.91,5.06-12.93,13-12.93S247,28.18,247,36,241.74,49.1,233.87,49.1,220.86,44,220.86,36.09Zm7.55,0c0,4.39,2.06,7,5.5,7s5.42-2.57,5.42-7-2-7-5.38-7S228.41,31.7,228.41,36.05Z" transform="translate(-11.26 -13.86)"/><path class="cls-4" d="M254.08,23.24a41.58,41.58,0,0,0-.31-5.42h8.06a47.74,47.74,0,0,0-.31,5.42v.83h1.42a26.83,26.83,0,0,0,3.88-.2v6.56a25.36,25.36,0,0,0-3.64-.24h-1.66V40.32c0,1.11.19,1.66.71,2a3.5,3.5,0,0,0,1.82.43,5.5,5.5,0,0,0,2.77-.71l.59,6a17.11,17.11,0,0,1-5.46.79c-2.69,0-4.55-.43-5.81-1.38-1.5-1.15-2.06-2.5-2.06-5.18V30.19h-1.5a23.72,23.72,0,0,0-3.44.24v-6.6a23.66,23.66,0,0,0,3.52.24h1.42Z" transform="translate(-11.26 -13.86)"/><path class="cls-4" d="M276.94,38.34c.4,3.2,2.26,4.9,5.38,4.9a5.79,5.79,0,0,0,4-1.46,3.83,3.83,0,0,0,1.18-2l6.88,1.94a11.49,11.49,0,0,1-2.61,4.08c-2.25,2.21-5.41,3.36-9.33,3.36s-6.92-1.11-9.17-3.36a13.45,13.45,0,0,1-3.6-9.65c0-7.83,5-13,12.57-13,6.17,0,10.48,3.36,11.87,9.25a29.72,29.72,0,0,1,.59,5.18,7,7,0,0,0,0,.79Zm10.29-5.46a4.62,4.62,0,0,0-5-3.87c-2.8,0-4.5,1.26-5.18,3.87Z" transform="translate(-11.26 -13.86)"/></svg>