<svg width="16" height="16" viewBox="0 0 16 16" fill="none" xmlns="http://www.w3.org/2000/svg">
<path d="M11.9933 7.71333H13.3333V0L0 13.3333H7.70667V12H3.22L11.9933 3.22V7.71333ZM15.8467 13.5467L15.1333 12.9933C15.1467 12.8867 15.16 12.78 15.16 12.6667C15.16 12.5533 15.1533 12.4467 15.1333 12.34L15.84 11.7867C15.87 11.761 15.8903 11.7258 15.8975 11.687C15.9048 11.6482 15.8986 11.6081 15.88 11.5733L15.2133 10.42C15.1733 10.3467 15.0867 10.32 15.0067 10.3467L14.18 10.68C14.0067 10.5467 13.82 10.4333 13.6133 10.3533L13.4867 9.47333C13.48 9.39333 13.4067 9.33333 13.3267 9.33333H11.9933C11.9133 9.33333 11.84 9.39333 11.8267 9.47333L11.7 10.3533C11.5 10.44 11.3067 10.5467 11.1333 10.68L10.3067 10.3467C10.2333 10.32 10.1467 10.3467 10.1 10.42L9.43333 11.5733C9.39333 11.6467 9.40667 11.7333 9.47333 11.7867L10.18 12.34C10.1526 12.5569 10.1526 12.7764 10.18 12.9933L9.47333 13.5467C9.44338 13.5724 9.42308 13.6075 9.41581 13.6463C9.40854 13.6851 9.41472 13.7252 9.43333 13.76L10.1 14.9133C10.14 14.9867 10.2267 15.0133 10.3067 14.9867L11.1333 14.6533C11.3067 14.7867 11.4933 14.9 11.7 14.98L11.8267 15.86C11.84 15.94 11.9067 16 11.9933 16H13.3267C13.4067 16 13.48 15.94 13.4933 15.86L13.62 14.98C13.82 14.8933 14.0133 14.7867 14.18 14.6533L15.0133 14.9867C15.0867 15.0133 15.1733 14.9867 15.22 14.9133L15.8867 13.76C15.9053 13.7252 15.9115 13.6851 15.9042 13.6463C15.8969 13.6075 15.8766 13.5724 15.8467 13.5467ZM12.66 13.6667C12.1067 13.6667 11.66 13.22 11.66 12.6667C11.66 12.1133 12.1067 11.6667 12.66 11.6667C13.2133 11.6667 13.66 12.1133 13.66 12.6667C13.66 13.22 13.2133 13.6667 12.66 13.6667Z" fill="#212121"/>
</svg>
