<svg width="16" height="17" viewBox="0 0 16 17" fill="none" xmlns="http://www.w3.org/2000/svg">
<path d="M12.76 8.66483C12.7867 8.46458 12.8 8.25766 12.8 8.03739C12.8 7.82379 12.7867 7.61019 12.7534 7.40994L14.1067 6.35529C14.165 6.30717 14.2049 6.24028 14.2195 6.16604C14.234 6.09179 14.2225 6.01478 14.1867 5.94812L12.9067 3.73203C12.869 3.66499 12.8088 3.61346 12.7369 3.58659C12.6649 3.55971 12.5857 3.55921 12.5134 3.58518L10.92 4.22598C10.5867 3.97233 10.2334 3.75873 9.84004 3.59853L9.60004 1.90309C9.58823 1.82668 9.54945 1.75704 9.49073 1.70683C9.43201 1.65661 9.35726 1.62914 9.28004 1.62941H6.72004C6.56004 1.62941 6.43337 1.74289 6.4067 1.90309L6.1667 3.59853C5.77337 3.75873 5.41337 3.979 5.0867 4.22598L3.49337 3.58518C3.3467 3.53178 3.18004 3.58518 3.10004 3.73203L1.8267 5.94812C1.7467 6.08829 1.77337 6.26184 1.9067 6.35529L3.26004 7.40994C3.2267 7.61019 3.20004 7.83046 3.20004 8.03739C3.20004 8.24431 3.21337 8.46458 3.2467 8.66483L1.89337 9.71948C1.83505 9.76761 1.79521 9.83449 1.78062 9.90874C1.76603 9.98298 1.77761 10.06 1.81337 10.1267L3.09337 12.3427C3.17337 12.4896 3.34004 12.5363 3.4867 12.4896L5.08004 11.8488C5.41337 12.1024 5.7667 12.316 6.16004 12.4762L6.40004 14.1717C6.43337 14.3319 6.56004 14.4454 6.72004 14.4454H9.28004C9.44004 14.4454 9.57337 14.3319 9.59337 14.1717L9.83337 12.4762C10.2267 12.316 10.5867 12.1024 10.9134 11.8488L12.5067 12.4896C12.6534 12.543 12.82 12.4896 12.9 12.3427L14.18 10.1267C14.26 9.9798 14.2267 9.81293 14.1 9.71948L12.76 8.66483ZM8.00004 10.4404C7.36406 10.4386 6.75463 10.1849 6.30492 9.73461C5.85522 9.28435 5.6018 8.67416 5.60004 8.03739C5.60004 6.71574 6.68004 5.6344 8.00004 5.6344C9.32004 5.6344 10.4 6.71574 10.4 8.03739C10.4 9.35903 9.32004 10.4404 8.00004 10.4404Z" fill="#212121"/>
</svg>
