<svg width="12" height="12" viewBox="0 0 12 12" fill="none" xmlns="http://www.w3.org/2000/svg">
<g clip-path="url(#clip0)">
<path d="M5.838 0.132038C5.76651 0.0664533 5.67748 0.0230848 5.58176 0.00721934C5.48605 -0.00864608 5.38779 0.00367695 5.29896 0.0426862C5.21013 0.0816954 5.13457 0.145706 5.08148 0.226914C5.0284 0.308122 5.00009 0.403019 5 0.500038V4.00004H2C1.46957 4.00004 0.960859 4.21075 0.585786 4.58582C0.210714 4.9609 0 5.4696 0 6.00004C0 6.53047 0.210714 7.03918 0.585786 7.41425C0.960859 7.78932 1.46957 8.00004 2 8.00004H5V11.5C5.00009 11.5971 5.0284 11.692 5.08148 11.7732C5.13457 11.8544 5.21013 11.9184 5.29896 11.9574C5.38779 11.9964 5.48605 12.0087 5.58176 11.9929C5.67748 11.977 5.76651 11.9336 5.838 11.868L11.838 6.36804C11.8889 6.32121 11.9296 6.26432 11.9574 6.20098C11.9852 6.13764 11.9995 6.06921 11.9995 6.00004C11.9995 5.93086 11.9852 5.86244 11.9574 5.7991C11.9296 5.73575 11.8889 5.67887 11.838 5.63204L5.838 0.132038Z" fill="#F39800"/>
</g>
<defs>
<clipPath id="clip0">
<rect width="12" height="12" fill="white"/>
</clipPath>
</defs>
</svg>
