<svg width="16" height="16" viewBox="0 0 16 16" fill="none" xmlns="http://www.w3.org/2000/svg">
<path d="M12.6666 1.99967L8.66665 5.99967L9.99998 7.33301L14.6666 2.66634V1.99967H12.6666ZM6.66665 3.99967C6.66665 2.52634 5.47331 1.33301 3.99998 1.33301C2.52665 1.33301 1.33331 2.52634 1.33331 3.99967C1.33331 5.47301 2.52665 6.66634 3.99998 6.66634C4.39331 6.66634 4.75998 6.57967 5.09331 6.42634L6.66665 7.99967L5.09331 9.57301C4.75998 9.41967 4.39331 9.33301 3.99998 9.33301C2.52665 9.33301 1.33331 10.5263 1.33331 11.9997C1.33331 13.473 2.52665 14.6663 3.99998 14.6663C5.47331 14.6663 6.66665 13.473 6.66665 11.9997C6.66665 11.6063 6.57998 11.2397 6.42665 10.9063L7.99998 9.33301L12.6666 13.9997H14.6666V13.333L6.42665 5.09301C6.57998 4.75967 6.66665 4.39301 6.66665 3.99967ZM3.99998 5.33301C3.82242 5.33702 3.64585 5.30552 3.48063 5.24036C3.31541 5.1752 3.16488 5.07768 3.03786 4.95354C2.91085 4.8294 2.80992 4.68113 2.741 4.51745C2.67207 4.35376 2.63655 4.17795 2.6365 4.00035C2.63646 3.82274 2.6719 3.64692 2.74074 3.4832C2.80958 3.31948 2.91044 3.17116 3.03739 3.04696C3.16434 2.92275 3.31482 2.82516 3.48001 2.75992C3.6452 2.69467 3.82175 2.66308 3.99931 2.66701C4.34769 2.67471 4.6792 2.81849 4.92289 3.06757C5.16658 3.31664 5.30308 3.65122 5.30317 3.99968C5.30326 4.34814 5.16692 4.68279 4.92336 4.93199C4.67979 5.18119 4.34835 5.32513 3.99998 5.33301ZM3.99998 13.333C3.82242 13.337 3.64585 13.3055 3.48063 13.2404C3.31541 13.1752 3.16488 13.0777 3.03786 12.9535C2.91085 12.8294 2.80992 12.6811 2.741 12.5174C2.67207 12.3538 2.63655 12.178 2.6365 12.0003C2.63646 11.8227 2.6719 11.6469 2.74074 11.4832C2.80958 11.3195 2.91044 11.1712 3.03739 11.047C3.16434 10.9228 3.31482 10.8252 3.48001 10.7599C3.6452 10.6947 3.82175 10.6631 3.99931 10.667C4.34769 10.6747 4.6792 10.8185 4.92289 11.0676C5.16658 11.3166 5.30308 11.6512 5.30317 11.9997C5.30326 12.3481 5.16692 12.6828 4.92336 12.932C4.67979 13.1812 4.34835 13.3251 3.99998 13.333ZM7.99998 7.66634C8.18665 7.66634 8.33331 7.81301 8.33331 7.99967C8.33331 8.18634 8.18665 8.33301 7.99998 8.33301C7.81331 8.33301 7.66665 8.18634 7.66665 7.99967C7.66665 7.81301 7.81331 7.66634 7.99998 7.66634Z" fill="#FABE00"/>
</svg>
