<svg width="16" height="16" viewBox="0 0 16 16" fill="none" xmlns="http://www.w3.org/2000/svg">
<path d="M2 2H7.33333V7.33333H2V2ZM8.66667 2H14V7.33333H8.66667V2ZM2 8.66667H7.33333V14H2V8.66667Z" fill="#FABE00"/>
<path d="M12.8625 11.5288C12.8711 11.4663 12.8753 11.4018 12.8753 11.333C12.8753 11.2663 12.8711 11.1997 12.8603 11.1372L13.2951 10.808C13.3139 10.793 13.3267 10.7721 13.3313 10.7489C13.336 10.7258 13.3323 10.7017 13.3208 10.6809L12.9096 9.98926C12.8975 9.96833 12.8782 9.95225 12.855 9.94386C12.8319 9.93548 12.8065 9.93532 12.7832 9.94342L12.2714 10.1434C12.1643 10.0643 12.0508 9.99759 11.9244 9.94759L11.8473 9.41843C11.8435 9.39458 11.8311 9.37284 11.8122 9.35717C11.7933 9.3415 11.7693 9.33292 11.7445 9.33301H10.9221C10.8707 9.33301 10.83 9.36843 10.8214 9.41843L10.7443 9.94759C10.618 9.99759 10.5023 10.0663 10.3974 10.1434L9.88552 9.94342C9.8384 9.92676 9.78486 9.94342 9.75916 9.98926L9.35009 10.6809C9.32439 10.7247 9.33296 10.7788 9.37579 10.808L9.81056 11.1372C9.79985 11.1997 9.79128 11.2684 9.79128 11.333C9.79128 11.3976 9.79557 11.4663 9.80628 11.5288L9.37151 11.858C9.35277 11.873 9.33997 11.8939 9.33529 11.9171C9.3306 11.9403 9.33432 11.9643 9.34581 11.9851L9.75702 12.6768C9.78272 12.7226 9.83626 12.7372 9.88338 12.7226L10.3952 12.5226C10.5023 12.6018 10.6158 12.6684 10.7422 12.7184L10.8193 13.2476C10.83 13.2976 10.8707 13.333 10.9221 13.333H11.7445C11.7959 13.333 11.8388 13.2976 11.8452 13.2476L11.9223 12.7184C12.0486 12.6684 12.1643 12.6018 12.2692 12.5226L12.7811 12.7226C12.8282 12.7393 12.8818 12.7226 12.9075 12.6768L13.3187 11.9851C13.3444 11.9393 13.3337 11.8872 13.293 11.858L12.8625 11.5288ZM11.3333 12.083C11.129 12.0825 10.9332 12.0033 10.7887 11.8627C10.6443 11.7222 10.5629 11.5318 10.5623 11.333C10.5623 10.9205 10.9093 10.583 11.3333 10.583C11.7574 10.583 12.1043 10.9205 12.1043 11.333C12.1043 11.7455 11.7574 12.083 11.3333 12.083Z" fill="#F39800"/>
</svg>
