<svg width="12" height="12" viewBox="0 0 12 12" fill="none" xmlns="http://www.w3.org/2000/svg">
<g clip-path="url(#clip0)">
<path d="M1.49994 12.0003C1.32744 12.0003 1.15344 11.9411 1.01244 11.8196C0.698193 11.5503 0.661443 11.0771 0.931443 10.7628L5.01219 6.00032L0.930693 1.23782C0.660693 0.923565 0.697443 0.451065 1.01169 0.181065C1.32594 -0.0889346 1.79919 -0.0529346 2.06919 0.262065L6.56919 5.51207C6.80994 5.79257 6.80994 6.20731 6.56919 6.48781L2.06919 11.7378C1.92144 11.9118 1.71069 12.0003 1.49994 12.0003Z" fill="white"/>
<path d="M5.99994 12.0002C5.82744 12.0002 5.65344 11.941 5.51244 11.8195C5.19819 11.5502 5.16144 11.077 5.43144 10.7627L9.51219 6.00025L5.43069 1.23775C5.16069 0.923497 5.19744 0.450997 5.51169 0.180997C5.82594 -0.089003 6.29994 -0.053003 6.56919 0.262747L11.0692 5.51275C11.3099 5.79325 11.3099 6.208 11.0692 6.4885L6.56919 11.7385C6.42144 11.9117 6.21069 12.0002 5.99994 12.0002Z" fill="white"/>
</g>
<defs>
<clipPath id="clip0">
<rect width="12" height="12" fill="white"/>
</clipPath>
</defs>
</svg>
