<svg width="22" height="22" viewBox="0 0 22 22" fill="none" xmlns="http://www.w3.org/2000/svg">
<path d="M10.9998 5.95833C12.6853 5.95273 14.3382 6.42288 15.7684 7.31475C17.1987 8.20661 18.3482 9.48398 19.0848 11C18.3491 12.5167 17.1997 13.7947 15.7693 14.6867C14.3389 15.5786 12.6856 16.0484 10.9998 16.0417C9.3141 16.0484 7.66077 15.5786 6.23035 14.6867C4.79992 13.7947 3.65061 12.5167 2.91484 11C3.65149 9.48398 4.801 8.20661 6.23123 7.31475C7.66145 6.42288 9.31433 5.95273 10.9998 5.95833V5.95833ZM10.9998 4.125C6.4165 4.125 2.50234 6.97583 0.916504 11C2.50234 15.0242 6.4165 17.875 10.9998 17.875C15.5832 17.875 19.4973 15.0242 21.0832 11C19.4973 6.97583 15.5832 4.125 10.9998 4.125ZM10.9998 8.70833C11.6076 8.70833 12.1905 8.94978 12.6203 9.37955C13.0501 9.80932 13.2915 10.3922 13.2915 11C13.2915 11.6078 13.0501 12.1907 12.6203 12.6205C12.1905 13.0502 11.6076 13.2917 10.9998 13.2917C10.392 13.2917 9.80915 13.0502 9.37938 12.6205C8.94961 12.1907 8.70817 11.6078 8.70817 11C8.70817 10.3922 8.94961 9.80932 9.37938 9.37955C9.80915 8.94978 10.392 8.70833 10.9998 8.70833V8.70833ZM10.9998 6.875C8.7265 6.875 6.87484 8.72667 6.87484 11C6.87484 13.2733 8.7265 15.125 10.9998 15.125C13.2732 15.125 15.1248 13.2733 15.1248 11C15.1248 8.72667 13.2732 6.875 10.9998 6.875Z" fill="#FABE00"/>
<line x1="1.9665" y1="4.43334" x2="19.0998" y2="17.2833" stroke="#FABE00" stroke-width="1.5" stroke-linecap="round"/>
</svg>
