<svg width="16" height="10" viewBox="0 0 16 10" fill="none" xmlns="http://www.w3.org/2000/svg">
<path d="M7.99984 1.33333C9.22566 1.32926 10.4278 1.67119 11.4679 2.31982C12.5081 2.96845 13.3441 3.89744 13.8798 5C13.3447 6.10306 12.5089 7.03249 11.4686 7.68121C10.4282 8.32993 9.22583 8.67153 7.99984 8.66667C6.77385 8.67153 5.57143 8.32993 4.53112 7.68121C3.49081 7.03249 2.65495 6.10306 2.11984 5C2.65558 3.89744 3.49159 2.96845 4.53176 2.31982C5.57192 1.67119 6.77401 1.32926 7.99984 1.33333ZM7.99984 0C4.6665 0 1.81984 2.07333 0.666504 5C1.81984 7.92667 4.6665 10 7.99984 10C11.3332 10 14.1798 7.92667 15.3332 5C14.1798 2.07333 11.3332 0 7.99984 0ZM7.99984 3.33333C8.44186 3.33333 8.86579 3.50893 9.17835 3.82149C9.49091 4.13405 9.6665 4.55797 9.6665 5C9.6665 5.44203 9.49091 5.86595 9.17835 6.17851C8.86579 6.49107 8.44186 6.66667 7.99984 6.66667C7.55781 6.66667 7.13389 6.49107 6.82133 6.17851C6.50876 5.86595 6.33317 5.44203 6.33317 5C6.33317 4.55797 6.50876 4.13405 6.82133 3.82149C7.13389 3.50893 7.55781 3.33333 7.99984 3.33333ZM7.99984 2C6.3465 2 4.99984 3.34667 4.99984 5C4.99984 6.65333 6.3465 8 7.99984 8C9.65317 8 10.9998 6.65333 10.9998 5C10.9998 3.34667 9.65317 2 7.99984 2Z" fill="#181818"/>
</svg>
