<svg width="16" height="10" viewBox="0 0 16 10" fill="none" xmlns="http://www.w3.org/2000/svg">
<path d="M8.00008 1.33333C9.2259 1.32926 10.428 1.67119 11.4682 2.31982C12.5083 2.96845 13.3443 3.89744 13.8801 5C13.345 6.10306 12.5091 7.03249 11.4688 7.68121C10.4285 8.32993 9.22607 8.67153 8.00008 8.66667C6.77409 8.67153 5.57167 8.32993 4.53136 7.68121C3.49105 7.03249 2.65519 6.10306 2.12008 5C2.65583 3.89744 3.49184 2.96845 4.532 2.31982C5.57217 1.67119 6.77426 1.32926 8.00008 1.33333ZM8.00008 0C4.66675 0 1.82008 2.07333 0.666748 5C1.82008 7.92667 4.66675 10 8.00008 10C11.3334 10 14.1801 7.92667 15.3334 5C14.1801 2.07333 11.3334 0 8.00008 0ZM8.00008 3.33333C8.44211 3.33333 8.86603 3.50893 9.17859 3.82149C9.49115 4.13405 9.66675 4.55797 9.66675 5C9.66675 5.44203 9.49115 5.86595 9.17859 6.17851C8.86603 6.49107 8.44211 6.66667 8.00008 6.66667C7.55805 6.66667 7.13413 6.49107 6.82157 6.17851C6.50901 5.86595 6.33341 5.44203 6.33341 5C6.33341 4.55797 6.50901 4.13405 6.82157 3.82149C7.13413 3.50893 7.55805 3.33333 8.00008 3.33333ZM8.00008 2C6.34675 2 5.00008 3.34667 5.00008 5C5.00008 6.65333 6.34675 8 8.00008 8C9.65341 8 11.0001 6.65333 11.0001 5C11.0001 3.34667 9.65341 2 8.00008 2Z" fill="#939393"/>
</svg>
