<svg width="39" height="39" viewBox="0 0 39 39" fill="none" xmlns="http://www.w3.org/2000/svg">
<path d="M29.25 21.125C29.25 23.0534 28.6782 24.9384 27.6068 26.5418C26.5355 28.1452 25.0127 29.3949 23.2312 30.1328C21.4496 30.8708 19.4892 31.0639 17.5979 30.6877C15.7066 30.3115 13.9693 29.3829 12.6057 28.0193C11.2422 26.6557 10.3136 24.9184 9.93735 23.0271C9.56114 21.1358 9.75423 19.1754 10.4922 17.3938C11.2301 15.6123 12.4798 14.0895 14.0832 13.0182C15.6866 11.9468 17.5716 11.375 19.5 11.375V17.875L27.625 9.75L19.5 1.625V8.125C16.9288 8.125 14.4154 8.88744 12.2776 10.3159C10.1398 11.7444 8.47351 13.7747 7.48957 16.1501C6.50563 18.5256 6.24819 21.1394 6.7498 23.6612C7.25141 26.1829 8.48953 28.4993 10.3076 30.3174C12.1257 32.1355 14.4421 33.3736 16.9638 33.8752C19.4856 34.3768 22.0995 34.1194 24.4749 33.1354C26.8503 32.1515 28.8806 30.4853 30.3091 28.3474C31.7376 26.2096 32.5 23.6962 32.5 21.125H29.25Z" fill="#F9F9F9"/>
</svg>
