<svg width="40" height="39" viewBox="0 0 40 39" fill="none" xmlns="http://www.w3.org/2000/svg">
<path d="M30 21.125C30 23.0534 29.4282 24.9384 28.3568 26.5418C27.2855 28.1452 25.7627 29.3949 23.9812 30.1328C22.1996 30.8708 20.2392 31.0639 18.3479 30.6877C16.4566 30.3115 14.7193 29.3829 13.3557 28.0193C11.9922 26.6557 11.0636 24.9184 10.6873 23.0271C10.3111 21.1358 10.5042 19.1754 11.2422 17.3938C11.9801 15.6123 13.2298 14.0895 14.8332 13.0182C16.4366 11.9468 18.3216 11.375 20.25 11.375V17.875L28.375 9.75L20.25 1.625V8.125C17.6788 8.125 15.1654 8.88744 13.0276 10.3159C10.8898 11.7444 9.22351 13.7747 8.23957 16.1501C7.25563 18.5256 6.99819 21.1394 7.4998 23.6612C8.00141 26.1829 9.23953 28.4993 11.0576 30.3174C12.8757 32.1355 15.1921 33.3736 17.7138 33.8752C20.2356 34.3768 22.8495 34.1194 25.2249 33.1354C27.6003 32.1515 29.6307 30.4853 31.0591 28.3474C32.4876 26.2096 33.25 23.6962 33.25 21.125H30Z" fill="#F9F9F9"/>
</svg>
