<svg width="131" height="18" viewBox="0 0 131 18" fill="none" xmlns="http://www.w3.org/2000/svg">
<path d="M3.16695 17.4868C1.6938 17.4868 0.817695 17.4868 0 17.5506C0.144524 16.5353 0.203124 15.5101 0.175213 14.4853V3.39692C0.194252 2.2685 0.135719 1.14009 0 0.0194092H4.66606C4.51752 1.11762 4.45893 2.22578 4.49084 3.33319V13.7525H9.68256C10.8679 13.7864 12.0542 13.7374 13.2324 13.6059V17.627C12.0534 17.5059 10.8678 17.4569 9.68256 17.4804L3.16695 17.4868Z" fill="#666666"/>
<path d="M24.3427 8.70507C24.3427 7.6982 23.6937 7.233 22.3114 7.233C20.9291 7.233 20.2153 7.67271 19.8973 8.70507L15.8088 8.06781C16.0836 7.03674 16.7202 6.13401 17.6064 5.51875C19.0454 4.64234 20.7249 4.2239 22.4153 4.32069C23.7742 4.27667 25.1263 4.52915 26.3739 5.05992C27.7433 5.79277 28.3208 6.97171 28.3208 8.83889V14.5042C28.3097 15.5004 28.3595 16.4963 28.4701 17.4866H24.3232V16.5243C23.1426 17.4261 21.6699 17.8788 20.1763 17.7988C18.8369 17.8966 17.5111 17.4809 16.4772 16.639C16.0925 16.2723 15.7903 15.8305 15.5903 15.342C15.3902 14.8536 15.2966 14.3294 15.3156 13.8032C15.2908 13.2041 15.4213 12.6085 15.6949 12.0724C15.9684 11.5363 16.3761 11.0772 16.8796 10.7379C18.2109 9.90187 19.7458 9.43098 21.325 9.37419C22.1621 9.29135 22.8046 9.26587 24.3427 9.22764V8.70507ZM24.3427 11.8914C23.0957 11.8518 21.8495 11.9913 20.6436 12.3056C20.3129 12.3767 20.0141 12.5499 19.791 12.7999C19.5679 13.05 19.4323 13.3636 19.4041 13.6948C19.4041 14.4532 20.053 14.8929 21.1563 14.8929C22.0281 14.8939 22.8761 14.614 23.5704 14.0963C23.8116 13.8982 24.0058 13.6507 24.1392 13.371C24.2726 13.0914 24.3421 12.7865 24.3427 12.4777V11.8914Z" fill="#666666"/>
<path d="M30.7609 17.4868C30.8927 16.3936 30.9491 15.2929 30.9297 14.1922V3.31407C30.9529 2.21332 30.8965 1.11233 30.7609 0.0194092H35.1025C34.9881 1.11388 34.9383 2.21395 34.9532 3.31407V5.07929C34.9532 5.39155 34.9532 5.58273 34.9532 5.87587C36.1573 4.80772 37.7382 4.243 39.3597 4.30182C43.2535 4.30182 45.5184 6.73618 45.5184 10.8975C45.6145 12.8517 44.9299 14.7655 43.6104 16.2314C43.0231 16.7887 42.3255 17.2217 41.5609 17.5034C40.7962 17.7852 39.9807 17.9096 39.165 17.8692C38.3969 17.912 37.6279 17.802 36.9041 17.5458C36.1803 17.2895 35.5168 16.8923 34.9532 16.378C34.9532 16.4417 34.9532 16.7094 34.9532 16.8177V17.455L30.7609 17.4868ZM38.3344 7.49452C36.3875 7.49452 34.9987 8.9666 34.9987 10.9995C34.9987 13.0323 36.4069 14.6574 38.2435 14.6574C40.0801 14.6574 41.3391 13.1662 41.3391 10.9357C41.3391 8.70532 40.2358 7.49452 38.3344 7.49452Z" fill="#666666"/>
<path d="M51.0151 12.2609C51.2293 13.9624 52.2352 14.861 53.929 14.861C54.721 14.883 55.4917 14.6072 56.0835 14.0899C56.4073 13.8074 56.634 13.4334 56.7325 13.0193L60.4576 14.0453C60.1464 14.8553 59.6643 15.5915 59.0428 16.2056C58.3643 16.8176 57.5682 17.2907 56.7013 17.597C55.8344 17.9034 54.914 18.037 53.9939 17.9899C53.0874 18.0387 52.1802 17.9057 51.3278 17.5989C50.4754 17.2921 49.6955 16.8181 49.0358 16.2056C47.7269 14.8252 47.027 12.9926 47.0889 11.1075C47.0889 6.9525 49.8081 4.19952 53.89 4.19952C57.2257 4.19952 59.5555 5.98388 60.3083 9.11285C60.4967 10.0195 60.6031 10.9407 60.6263 11.8658C60.6263 11.9487 60.6263 12.0761 60.6263 12.2864L51.0151 12.2609ZM56.5767 9.36137C56.4787 8.74259 56.1427 8.18429 55.6381 7.80139C55.1335 7.41848 54.4986 7.2401 53.8641 7.303C53.2195 7.24081 52.5746 7.41749 52.0558 7.79833C51.5371 8.17918 51.1821 8.73668 51.0605 9.36137H56.5767Z" fill="#666666"/>
<path d="M66.8429 0.0191172C66.7052 1.07555 66.6487 2.14068 66.6742 3.20544V14.3384C66.6606 15.403 66.717 16.4673 66.8429 17.5248H62.3719C62.513 16.4686 62.5716 15.4034 62.5472 14.3384V3.18632C62.576 2.12132 62.5174 1.05576 62.3719 0L66.8429 0.0191172Z" fill="#666666"/>
<path d="M83.7683 8.60336C84.3848 9.50828 84.7937 10.1838 85.3064 11.1078C85.222 10.1392 85.1766 9.19603 85.1766 7.99797V3.21211C85.1936 2.14748 85.1372 1.08294 85.0078 0.025788H89.5506C89.4154 1.08248 89.3569 2.14727 89.3754 3.21211V14.3579C89.3669 15.4034 89.4254 16.4485 89.5506 17.4868H84.8651C84.3942 16.5635 83.8586 15.6735 83.2621 14.8231L79.3035 8.96661C78.7376 8.13576 78.2239 7.27171 77.7654 6.37932C77.8689 7.41916 77.9187 8.46349 77.9147 9.50829V14.2113C77.8939 15.3057 77.9503 16.4001 78.0834 17.4868H73.5406C73.6857 16.3947 73.7443 15.2932 73.7159 14.1922V3.14838C73.7296 2.1027 73.6711 1.05731 73.5406 0.0194092H78.1807C78.5916 0.944545 79.1006 1.82458 79.6993 2.64494L83.7683 8.60336Z" fill="#666666"/>
<path d="M91.0627 11.0629C91.0627 6.86337 93.8014 4.19324 98.117 4.19324C102.433 4.19324 105.178 6.86337 105.178 11.0183C105.178 15.1733 102.355 17.9709 98.0975 17.9709C93.8403 17.9709 91.0627 15.2816 91.0627 11.0629ZM95.1447 11.0629C95.1447 13.3953 96.2609 14.7973 98.117 14.7973C99.973 14.7973 101.05 13.4336 101.05 11.1012C101.05 8.76879 99.96 7.3668 98.1429 7.3668C96.3258 7.3668 95.1447 8.70507 95.1447 11.0438V11.0629Z" fill="#666666"/>
<path d="M109.026 4.24418C109.034 3.28336 108.976 2.32308 108.851 1.37012H113.211C113.099 2.32417 113.043 3.28378 113.042 4.24418V4.6839H113.815C114.515 4.6985 115.215 4.66443 115.911 4.58193V8.06777C115.265 7.98091 114.615 7.93831 113.964 7.94031H113.049V13.3188C113.049 13.9051 113.159 14.1983 113.432 14.3894C113.733 14.5534 114.074 14.6327 114.418 14.6188C114.943 14.6236 115.459 14.494 115.917 14.2429L116.235 17.4292C115.28 17.7236 114.283 17.8635 113.283 17.8434C111.829 17.8434 110.823 17.614 110.142 17.1105C109.331 16.5051 109.032 15.7914 109.032 14.3576V7.93395H108.215C107.594 7.93291 106.974 7.97549 106.359 8.06139V4.55008C106.988 4.64134 107.624 4.68394 108.26 4.67752H109.026V4.24418Z" fill="#666666"/>
<path d="M121.395 12.2609C121.609 13.9624 122.615 14.861 124.303 14.861C125.097 14.8833 125.87 14.6076 126.464 14.0899C126.783 13.8041 127.009 13.4314 127.113 13.0193L130.831 14.0453C130.522 14.8565 130.04 15.5931 129.417 16.2056C128.739 16.8174 127.944 17.2904 127.078 17.5968C126.213 17.9032 125.293 18.0368 124.374 17.9899C123.467 18.0392 122.558 17.9065 121.705 17.5997C120.851 17.2929 120.07 16.8185 119.41 16.2056C118.101 14.8252 117.401 12.9926 117.463 11.1075C117.463 6.9525 120.182 4.19952 124.264 4.19952C127.599 4.19952 129.936 5.98388 130.682 9.11285C130.87 10.0195 130.977 10.9407 131 11.8658C130.991 12.0059 130.991 12.1464 131 12.2864L121.395 12.2609ZM126.95 9.36137C126.854 8.74553 126.521 8.18926 126.02 7.80656C125.52 7.42386 124.889 7.24369 124.257 7.303C123.614 7.24249 122.97 7.41995 122.453 7.80065C121.936 8.18134 121.582 8.73788 121.46 9.36137H126.95Z" fill="#666666"/>
</svg>
