<svg width="16" height="16" viewBox="0 0 16 16" fill="none" xmlns="http://www.w3.org/2000/svg">
<path d="M1 14.551H14.4696V15H1V14.551Z" fill="#F9F9F9"/>
<path d="M1 12.5454H4.31764V13.8725H1V12.5454Z" fill="#F9F9F9"/>
<path d="M6.10925 10.7539H9.42689V13.8725H6.10925V10.7539Z" fill="#F9F9F9"/>
<path d="M11.152 6.04282H14.4696V13.8725H11.152V6.04282Z" fill="#F9F9F9"/>
<path fill-rule="evenodd" clip-rule="evenodd" d="M12.6853 3.11987C12.7234 3.19643 12.8018 3.24446 12.8873 3.24402C12.9217 3.24402 12.9553 3.23591 12.9861 3.22089C13.0972 3.16612 13.143 3.03142 13.0882 2.9203L12.1903 1.12434V1.1241C12.1348 1.01321 11.9999 0.968307 11.889 1.02376L10.093 1.92173C9.98213 1.97719 9.93701 2.11212 9.99247 2.22301C10.0479 2.33392 10.1829 2.37904 10.2937 2.32358L11.6312 1.65439L11.2695 2.68589C9.70946 7.12884 5.69124 10.2457 1 10.6523L1.03817 11.1013C5.90607 10.6795 10.0754 7.44451 11.6933 2.83408L12.0432 1.83638L12.6853 3.11987Z" fill="#F9F9F9"/>
</svg>
