<svg width="40" height="39" viewBox="0 0 40 39" fill="none" xmlns="http://www.w3.org/2000/svg">
<path d="M6.75 21.125C6.75 23.6962 7.51244 26.2096 8.9409 28.3474C10.3694 30.4853 12.3997 32.1515 14.7751 33.1354C17.1506 34.1194 19.7644 34.3768 22.2862 33.8752C24.8079 33.3736 27.1243 32.1355 28.9424 30.3174C30.7605 28.4993 31.9986 26.1829 32.5002 23.6612C33.0018 21.1394 32.7444 18.5256 31.7604 16.1501C30.7765 13.7747 29.1103 11.7444 26.9724 10.3159C24.8346 8.88744 22.3212 8.125 19.75 8.125V1.625L11.625 9.75L19.75 17.875V11.375C21.6784 11.375 23.5634 11.9468 25.1668 13.0182C26.7702 14.0895 28.0199 15.6123 28.7578 17.3938C29.4958 19.1754 29.6889 21.1358 29.3127 23.0271C28.9365 24.9184 28.0079 26.6557 26.6443 28.0193C25.2807 29.3829 23.5434 30.3115 21.6521 30.6877C19.7608 31.0639 17.8004 30.8708 16.0188 30.1328C14.2373 29.3949 12.7145 28.1452 11.6432 26.5418C10.5718 24.9384 10 23.0534 10 21.125H6.75Z" fill="#F9F9F9"/>
</svg>
