<svg width="39" height="39" viewBox="0 0 39 39" fill="none" xmlns="http://www.w3.org/2000/svg">
<path d="M6.5 21.125C6.5 23.6962 7.26244 26.2096 8.6909 28.3474C10.1194 30.4853 12.1497 32.1515 14.5251 33.1354C16.9006 34.1194 19.5144 34.3768 22.0362 33.8752C24.5579 33.3736 26.8743 32.1355 28.6924 30.3174C30.5105 28.4993 31.7486 26.1829 32.2502 23.6612C32.7518 21.1394 32.4944 18.5256 31.5104 16.1501C30.5265 13.7747 28.8603 11.7444 26.7224 10.3159C24.5846 8.88744 22.0712 8.125 19.5 8.125V1.625L11.375 9.75L19.5 17.875V11.375C21.4284 11.375 23.3134 11.9468 24.9168 13.0182C26.5202 14.0895 27.7699 15.6123 28.5078 17.3938C29.2458 19.1754 29.4389 21.1358 29.0627 23.0271C28.6865 24.9184 27.7579 26.6557 26.3943 28.0193C25.0307 29.3829 23.2934 30.3115 21.4021 30.6877C19.5108 31.0639 17.5504 30.8708 15.7688 30.1328C13.9873 29.3949 12.4645 28.1452 11.3932 26.5418C10.3218 24.9384 9.75 23.0534 9.75 21.125H6.5Z" fill="#F9F9F9"/>
</svg>
