<svg width="16" height="10" viewBox="0 0 16 10" fill="none" xmlns="http://www.w3.org/2000/svg">
<path d="M7.99935 1.33333C9.22517 1.32926 10.4273 1.67119 11.4674 2.31982C12.5076 2.96845 13.3436 3.89744 13.8793 5C13.3442 6.10306 12.5084 7.03249 11.4681 7.68121C10.4278 8.32993 9.22534 8.67153 7.99935 8.66667C6.77336 8.67153 5.57094 8.32993 4.53063 7.68121C3.49032 7.03249 2.65446 6.10306 2.11935 5C2.65509 3.89744 3.4911 2.96845 4.53127 2.31982C5.57143 1.67119 6.77352 1.32926 7.99935 1.33333ZM7.99935 0C4.66602 0 1.81935 2.07333 0.666016 5C1.81935 7.92667 4.66602 10 7.99935 10C11.3327 10 14.1793 7.92667 15.3327 5C14.1793 2.07333 11.3327 0 7.99935 0ZM7.99935 3.33333C8.44138 3.33333 8.8653 3.50893 9.17786 3.82149C9.49042 4.13405 9.66601 4.55797 9.66601 5C9.66601 5.44203 9.49042 5.86595 9.17786 6.17851C8.8653 6.49107 8.44138 6.66667 7.99935 6.66667C7.55732 6.66667 7.1334 6.49107 6.82084 6.17851C6.50828 5.86595 6.33268 5.44203 6.33268 5C6.33268 4.55797 6.50828 4.13405 6.82084 3.82149C7.1334 3.50893 7.55732 3.33333 7.99935 3.33333ZM7.99935 2C6.34602 2 4.99935 3.34667 4.99935 5C4.99935 6.65333 6.34602 8 7.99935 8C9.65268 8 10.9993 6.65333 10.9993 5C10.9993 3.34667 9.65268 2 7.99935 2Z" fill="#F39800"/>
</svg>
