<svg width="16" height="16" viewBox="0 0 16 16" fill="none" xmlns="http://www.w3.org/2000/svg">
<path d="M12.9856 9.02667C13.0122 8.82667 13.0256 8.62 13.0256 8.4C13.0256 8.18667 13.0122 7.97334 12.9789 7.77334L14.3322 6.72C14.3905 6.67193 14.4304 6.60513 14.445 6.53098C14.4596 6.45683 14.448 6.37991 14.4122 6.31334L13.1322 4.1C13.0945 4.03304 13.0344 3.98159 12.9624 3.95474C12.8904 3.9279 12.8112 3.9274 12.7389 3.95334L11.1456 4.59334C10.8122 4.34 10.4589 4.12667 10.0656 3.96667L9.82556 2.27334C9.81376 2.19702 9.77497 2.12747 9.71626 2.07732C9.65754 2.02717 9.58278 1.99973 9.50556 2H6.94556C6.78556 2 6.6589 2.11334 6.63223 2.27334L6.39223 3.96667C5.9989 4.12667 5.6389 4.34667 5.31223 4.59334L3.7189 3.95334C3.57223 3.9 3.40556 3.95334 3.32556 4.1L2.05223 6.31334C1.97223 6.45334 1.9989 6.62667 2.13223 6.72L3.48556 7.77334C3.45223 7.97334 3.42556 8.19334 3.42556 8.4C3.42556 8.60667 3.4389 8.82667 3.47223 9.02667L2.1189 10.08C2.06058 10.1281 2.02073 10.1949 2.00614 10.269C1.99156 10.3432 2.00313 10.4201 2.0389 10.4867L3.3189 12.7C3.3989 12.8467 3.56556 12.8933 3.71223 12.8467L5.30556 12.2067C5.6389 12.46 5.99223 12.6733 6.38556 12.8333L6.62556 14.5267C6.6589 14.6867 6.78556 14.8 6.94556 14.8H9.50556C9.66556 14.8 9.79889 14.6867 9.81889 14.5267L10.0589 12.8333C10.4522 12.6733 10.8122 12.46 11.1389 12.2067L12.7322 12.8467C12.8789 12.9 13.0456 12.8467 13.1256 12.7L14.4056 10.4867C14.4856 10.34 14.4522 10.1733 14.3256 10.08L12.9856 9.02667ZM8.22556 10.8C7.58958 10.7982 6.98016 10.5448 6.53045 10.0951C6.08074 9.64541 5.82732 9.03598 5.82556 8.4C5.82556 7.08 6.90556 6 8.22556 6C9.54556 6 10.6256 7.08 10.6256 8.4C10.6256 9.72 9.54556 10.8 8.22556 10.8Z" fill="#F9F9F9"/>
</svg>
